<svg xmlns="http://www.w3.org/2000/svg" viewBox="0 0 260 260" width="1024" height="1024">
  <defs>
    <linearGradient id="iconGrad" x1="0%" y1="100%" x2="100%" y2="0%">
      <stop offset="0%" style="stop-color:#1e40af"/>
      <stop offset="45%" style="stop-color:#2563eb"/>
      <stop offset="100%" style="stop-color:#38bdf8"/>
    </linearGradient>
  </defs>
  
  <!-- White background with rounded corners -->
  <rect width="260" height="260" fill="white" rx="52"/>
  
  <!-- T2 Icon Mark - centered -->
  <g transform="translate(18, 32) scale(0.905)">
    <path d="M247.51 49.48 198.12.34 146 .4v47.2L98.69.34V.27h-.07L98.36 0v.27C49.81.26 48.67 0 0 0c4.87 4.86 45.91 46 49.65 49.58h98.28l-.09-.09 50.28.19c0 32.86.06 65.57.06 98.43-32.75-.07-65.64-.18-98.11-.18l49.12 49.57h98.32v-49.32c-16.35 0-32.82 0-49.31-.08l49.31-49.31Z" fill="url(#iconGrad)" fill-rule="evenodd"/>
    <path d="M50.37 197h49.32c0-48.84.26-98.61.26-147.44L50.37 98.7Z" fill="url(#iconGrad)" fill-rule="evenodd"/>
  </g>
</svg>
